<svg width="60" height="60" viewBox="0 0 60 60" fill="none" xmlns="http://www.w3.org/2000/svg">
<g clip-path="url(#clip0_22_64)">
<path d="M0 0H50.4C55.702 0 60 4.29797 60 9.6V50.4C60 55.702 55.702 60 50.4 60H9.6C4.29797 60 0 55.702 0 50.4V0Z" fill="#663399"/>
<path d="M21.4861 55.2C17.6323 55.1965 15.2543 53.0262 15.3 49.0326V38.9292C15.3 36.9045 15.8928 35.3653 17.0785 34.3115C19.2078 32.2603 24.1481 32.1354 26.2338 34.3427C27.5189 35.4762 28.0038 37.7915 27.8885 39.9523H23.4656C23.4992 39.1031 23.4542 37.8173 22.9549 37.3331C22.3064 36.4554 20.5934 36.5585 20.1406 37.4723C19.8621 37.9683 19.7229 38.7017 19.7229 39.6726V48.4434C19.7228 50.2825 20.362 51.2123 21.6406 51.2327C22.2384 51.2327 22.692 51.0158 23.0014 50.5819C23.4326 50.0669 23.4999 48.9272 23.4649 48.1026H27.8883C28.1906 52.3069 25.7091 55.2523 21.4856 55.2H21.4861ZM35.5285 55.2C31.2581 55.2586 29.348 52.2204 29.4661 48.1026H33.6415C33.5257 49.898 34.1424 51.5327 35.6208 51.4188C36.2805 51.419 36.7445 51.2123 37.013 50.7989C37.5228 50.0435 37.6181 47.8622 36.8892 47.0177C36.3797 46.2047 34.5474 45.4873 33.5796 45.0035C32.1979 44.3426 31.2029 43.5574 30.5946 42.648C29.2224 40.6296 29.3496 36.1992 31.275 34.4039C33.1458 32.1888 38.0316 32.0869 39.9042 34.3577C41.0592 35.5284 41.5636 37.8319 41.4661 39.9516H37.4447C37.4789 39.0804 37.3969 37.6746 37.0585 37.1623C36.8213 36.7283 36.3728 36.5113 35.7131 36.5112C34.5378 36.5113 33.9503 37.2137 33.9504 38.6182C33.9631 40.11 34.5443 40.7219 35.8992 41.3454C37.6535 42.0269 39.8843 43.1911 40.6931 44.5997C43.1053 48.8923 41.4504 55.4489 35.5278 55.1988L35.5285 55.2ZM49.0139 55.2C44.7436 55.2586 42.8335 52.2204 42.9516 48.1026H47.127C47.0112 49.898 47.6281 51.5327 49.1065 51.4188C49.766 51.419 50.23 51.2123 50.4985 50.7989C51.0085 50.0435 51.1038 47.8622 50.3747 47.0177C49.8654 46.2047 48.0331 45.4873 47.0653 45.0035C45.6836 44.3426 44.6886 43.5574 44.0803 42.648C42.7081 40.6296 42.8353 36.1992 44.7607 34.4039C46.6315 32.1888 51.5173 32.0869 53.3897 34.3577C54.5447 35.5284 55.0493 37.8319 54.9516 39.9516H50.9304C50.9646 39.0804 50.8824 37.6746 50.5439 37.1623C50.3069 36.7283 49.8585 36.5113 49.1986 36.5112C48.0236 36.5113 47.4361 37.2137 47.4361 38.6182C47.4485 40.11 48.03 40.7219 49.3847 41.3454C51.1392 42.0269 53.37 43.1911 54.1788 44.5997C56.5908 48.8923 54.9359 55.4489 49.0132 55.1988L49.0139 55.2Z" fill="white"/>
</g>
<defs>
<clipPath id="clip0_22_64">
<rect width="60" height="60" fill="white"/>
</clipPath>
</defs>
</svg>
