<svg width="60" height="60" viewBox="0 0 60 60" fill="none" xmlns="http://www.w3.org/2000/svg">
<g clip-path="url(#clip0_140_1247)">
<path d="M53.0235 12.2184C43.2037 -0.497855 24.9332 -2.84536 12.2165 6.97636C-0.498363 16.7981 -2.84352 35.0686 6.9782 47.7834C16.8018 60.4978 35.0737 62.8415 47.7866 53.0179C60.4963 43.1962 62.8419 24.9314 53.0235 12.2184Z" fill="#F37036"/>
<path d="M42.6928 11.3268C41.6913 11.4069 40.7417 11.8054 39.9829 12.464C39.095 13.2351 38.5283 14.3111 38.3947 15.4795C38.261 16.6479 38.5702 17.824 39.261 18.7757C39.9513 19.7276 40.9732 20.3863 42.1252 20.6219C43.2772 20.8575 44.4756 20.6528 45.4842 20.0484H45.4851L45.5582 20.1215C45.8904 19.9312 46.1995 19.7031 46.4793 19.4418C47.3427 18.5287 47.8176 17.3159 47.804 16.0593C47.7903 14.8027 47.2892 13.6005 46.4062 12.7063V12.7054L42.2606 16.8253L42.1875 16.7526L46.3331 12.6309C45.8532 12.1683 45.2805 11.8129 44.6529 11.5882C44.0254 11.3636 43.3572 11.2748 42.6928 11.3278V11.3268ZM37.2346 18.0707C35.2471 18.0674 32.002 20.3203 24.0782 28.244L24.1176 28.2843C24.0745 28.2693 24.0309 28.2679 24.0309 28.2679L21.0478 31.2248C20.9712 31.2976 20.9204 31.3935 20.9034 31.4979C20.8863 31.6022 20.9037 31.7093 20.9531 31.8028C21.0024 31.8963 21.081 31.9711 21.1767 32.0159C21.2725 32.0606 21.3803 32.0729 21.4837 32.0507L26.5996 30.9595C26.6224 30.9384 26.6376 30.9104 26.6428 30.8798L26.7562 30.997L25.0124 32.7267H24.9281L14.5753 43.161L17.8968 46.3598C17.9896 46.4438 18.1068 46.4959 18.2313 46.5084C18.3558 46.521 18.481 46.4934 18.5887 46.4296C18.6973 46.3665 18.7842 46.272 18.8382 46.1586C18.8921 46.0451 18.9105 45.9181 18.891 45.794L18.4059 43.6846C18.3754 43.6423 18.359 43.5915 18.359 43.5393C18.359 43.4872 18.3754 43.4363 18.4059 43.394C22.9406 41.2321 27.1576 38.459 30.9393 35.152L28.8135 33.0253L28.8539 33.0187L27.5929 31.7582L27.6735 31.6767L27.7589 31.7638L27.7148 31.8065L31.0603 35.2251V35.2237C37.4728 29.1515 42.0243 24.2704 40.8407 20.9854C40.7868 20.5926 40.6043 20.2286 40.3218 19.9504V19.9523C40.2499 19.8991 40.1742 19.8512 40.0954 19.8088C40.0565 19.7676 40.0223 19.7254 39.981 19.6851L39.9501 19.716C39.863 19.6634 39.7718 19.6179 39.6773 19.5801L39.8128 19.4432C38.9709 18.6932 38.2753 18.0726 37.2346 18.0698V18.0707ZM14.5031 43.2234L12.0792 45.6478V45.6496C11.9922 45.7035 11.9246 45.7836 11.8861 45.8784C11.8476 45.9732 11.8402 46.0777 11.8649 46.177C11.8889 46.2762 11.9435 46.3653 12.021 46.4317C12.0985 46.4981 12.195 46.5384 12.2967 46.5468L18.2367 46.957L14.5031 43.2234Z" fill="white"/>
<path d="M43.1016 10.9265C41.7411 10.925 40.4347 11.4587 39.4645 12.4125C38.7744 13.1189 38.3018 14.0089 38.1032 14.9763C37.9046 15.9438 37.9883 16.9479 38.3442 17.8692C36.1219 16.9176 33.1153 18.577 23.7633 27.9271C23.7568 27.9415 23.751 27.9562 23.7459 27.9712C23.7267 27.9796 23.7081 27.9893 23.6902 28.0003L20.7328 30.9834C20.5911 31.1225 20.498 31.3037 20.4673 31.4999C20.4367 31.6961 20.4701 31.897 20.5627 32.0728C20.6452 32.2119 20.7622 32.3274 20.9023 32.4082C21.0425 32.4889 21.2011 32.5323 21.3628 32.534L21.5095 32.4389L25.4583 31.5965L23.5692 33.5029C23.5585 33.5281 23.5501 33.5541 23.5439 33.5807L14.2861 42.8615C14.2492 42.8926 14.2186 42.9305 14.1961 42.9731L11.812 45.359C11.6934 45.4845 11.6123 45.6408 11.578 45.8101C11.5437 45.9794 11.5575 46.1549 11.618 46.3167C11.6804 46.4773 11.7858 46.6176 11.9228 46.7222C12.0597 46.8269 12.2228 46.8917 12.3942 46.9096L18.3089 47.3221C18.41 47.287 18.496 47.2184 18.5527 47.1276C18.6032 47.0568 18.6304 46.972 18.6304 46.885C18.6304 46.798 18.6032 46.7132 18.5527 46.6425L18.5405 46.6307C18.6684 46.5642 18.781 46.4716 18.8709 46.3589C18.9658 46.2355 19.0321 46.0927 19.0651 45.9406C19.098 45.7885 19.0967 45.631 19.0613 45.4795L18.6 43.5168C23.0253 41.4021 27.1715 38.7474 30.9441 35.6132C30.9805 35.6345 31.0196 35.6507 31.0603 35.6615C31.1794 35.6526 31.2909 35.6015 31.3753 35.5171C37.7269 29.5031 41.4605 25.3818 41.4605 22.11C41.4746 21.6561 41.4061 21.2034 41.2584 20.774C41.831 21.0109 42.4415 21.1427 43.0608 21.1631L43.0538 21.165C43.9068 21.1392 44.7407 20.9059 45.4833 20.4853L45.4852 20.4857C45.5813 20.5143 45.6848 20.5051 45.7744 20.46C46.1327 20.2489 46.4594 19.9882 46.7447 19.6856C47.2281 19.2113 47.6122 18.6455 47.8744 18.0211C48.1367 17.3967 48.2718 16.7262 48.2719 16.049C48.2718 15.3718 48.1368 14.7014 47.8747 14.077C47.6125 13.4526 47.2285 12.8867 46.7452 12.4125C46.7278 12.3969 46.7093 12.3826 46.6899 12.3698C45.7248 11.4435 44.4388 10.9265 43.1011 10.927L43.1016 10.9265ZM43.0608 11.7571C44.0081 11.7628 44.9275 12.0778 45.6792 12.6543L41.8974 16.4592C41.8845 16.4737 41.8726 16.4891 41.8617 16.5051C41.7936 16.5741 41.7536 16.666 41.7497 16.7629C41.7496 16.8215 41.7628 16.8793 41.7882 16.932C41.8136 16.9848 41.8506 17.0311 41.8964 17.0676H41.8974L44.7567 19.927C43.9741 20.2685 43.1065 20.3657 42.2677 20.2057C41.4289 20.0457 40.658 19.636 40.0561 19.0303C38.8439 17.8115 38.4924 15.9815 39.1406 14.3939C39.7889 12.8048 41.3344 11.7665 43.0608 11.7571ZM46.3983 13.3659C47.0167 14.114 47.3538 15.055 47.3513 16.0256C47.3495 17.1627 46.8963 18.2525 46.0913 19.0556C45.9298 19.2074 45.7578 19.3476 45.5766 19.4751L43.2689 17.2031L42.8175 16.7517L42.9417 16.6275L46.3978 13.365L46.3983 13.3659ZM46.2267 15.3314C46.1419 15.3047 46.0502 15.3099 45.9689 15.3459C45.8885 15.3875 45.8278 15.4593 45.8002 15.5456C45.7866 15.5886 45.7817 15.634 45.7857 15.6789C45.7897 15.7239 45.8026 15.7676 45.8236 15.8076C45.9067 15.9828 45.9394 16.1776 45.9182 16.3703C45.8969 16.563 45.8224 16.746 45.7031 16.8989C45.6726 16.9283 45.6486 16.964 45.6329 17.0034C45.6171 17.0429 45.6099 17.0852 45.6117 17.1276C45.6136 17.2139 45.6445 17.2964 45.7031 17.3582C45.7656 17.3821 45.8347 17.3821 45.8972 17.3582C45.9536 17.3723 46.0127 17.3707 46.0682 17.3536C46.1237 17.3365 46.1735 17.3045 46.2122 17.2612C46.4118 17.0167 46.5382 16.7207 46.5767 16.4074C46.6153 16.0942 46.5645 15.7764 46.4302 15.4907V15.4926C46.3844 15.4158 46.312 15.3584 46.2267 15.3314ZM37.1906 18.4828C37.7562 18.5021 38.3005 18.7036 38.7422 19.0575C38.2666 19.126 37.8258 19.3463 37.4855 19.6856L26.7947 30.3285L24.6966 28.2304C30.2409 22.7123 33.6309 19.83 35.7384 18.8854C36.1727 18.612 36.6776 18.4723 37.1906 18.4828ZM39.0492 19.8703C39.4082 19.8705 39.7524 20.0128 40.0069 20.2659C40.1419 20.3931 40.2485 20.5475 40.3195 20.7188C40.3905 20.8902 40.4244 21.0747 40.4189 21.2601C40.4128 21.4449 40.3686 21.6264 40.2891 21.7934C40.2097 21.9603 40.0967 22.1091 39.9572 22.2304L28.59 32.1239L27.3633 30.8971L38.0916 20.2659C38.3461 20.0129 38.6904 19.8704 39.0492 19.8703ZM40.4527 23.01C39.6605 26.1515 35.4619 30.4082 31.0838 34.5445L29.3133 32.7759L40.4527 23.01ZM24.0783 28.8501L24.2067 28.9767L25.8534 30.6234L21.3394 31.589L24.0783 28.8501ZM26.7938 31.5876L26.7956 31.5895L27.3431 32.1496L27.3516 32.189L27.3881 32.1946L27.5044 32.3137L27.8888 32.7075L25.3645 33.0168L26.7938 31.5876ZM28.6064 33.4982L30.2836 35.1745C26.575 38.2583 22.5053 40.8801 18.1641 42.982C18.0231 43.0491 17.9098 43.163 17.8434 43.3043C17.777 43.4456 17.7616 43.6055 17.7999 43.7568L18.285 45.8662C18.3029 45.891 18.3125 45.9207 18.3125 45.9513C18.3125 45.9818 18.3029 46.0116 18.285 46.0364C18.2583 46.0603 18.2238 46.0735 18.188 46.0735C18.1522 46.0735 18.1176 46.0603 18.0909 46.0364L15.2306 43.1526L24.0469 34.207L28.6064 33.4982ZM14.5753 43.7826L14.9827 44.1642L17.0883 46.2698L12.3933 45.966L14.5753 43.7826Z" fill="#F37036"/>
</g>
<defs>
<clipPath id="clip0_140_1247">
<rect width="60" height="60" fill="white"/>
</clipPath>
</defs>
</svg>
