<svg width="60" height="60" viewBox="0 0 60 60" fill="none" xmlns="http://www.w3.org/2000/svg">
<g clip-path="url(#clip0_42_237)">
<path d="M59.2326 26.765L47.4076 6.30251C46.3826 4.5275 43.8651 3.0675 41.8076 3.0675H18.1826C16.1326 3.0675 13.6051 4.5275 12.5826 6.30251L0.765088 26.765C-0.259912 28.54 -0.259912 31.4475 0.765088 33.225L12.5776 53.6975C13.6026 55.4725 16.1201 56.9325 18.1776 56.9325H41.8151C43.8651 56.9325 46.3801 55.4725 47.4151 53.6975L59.2301 33.2225C60.2551 31.4475 60.2551 28.54 59.2301 26.765H59.2326ZM27.4401 14.3875C27.4401 13.045 28.5351 11.95 29.8751 11.95C31.2151 11.95 32.3126 13.045 32.3126 14.3875V28.94C32.2729 29.5588 31.9991 30.1393 31.5468 30.5636C31.0945 30.9878 30.4977 31.2239 29.8776 31.2239C29.2575 31.2239 28.6607 30.9878 28.2084 30.5636C27.7561 30.1393 27.4823 29.5588 27.4426 28.94L27.4401 14.3875ZM29.8751 45.4625C25.4953 45.4566 21.2968 43.7137 18.2003 40.6163C15.1038 37.5189 13.3622 33.3198 13.3576 28.94C13.3639 26.364 13.9696 23.8248 15.1269 21.5233C16.2841 19.2219 17.9611 17.2213 20.0251 15.68C20.2537 15.5097 20.5137 15.3862 20.7901 15.3166C21.0666 15.2471 21.3541 15.2328 21.6361 15.2746C21.9181 15.3164 22.189 15.4135 22.4334 15.5603C22.6778 15.7071 22.8907 15.9007 23.0601 16.13C23.2303 16.3582 23.3538 16.6178 23.4235 16.8938C23.4933 17.1698 23.5079 17.4569 23.4666 17.7386C23.4252 18.0202 23.3288 18.291 23.1826 18.5353C23.0365 18.7797 22.8437 18.9928 22.6151 19.1625C20.1106 21.1219 18.4709 23.9824 18.0458 27.1337C17.6207 30.285 18.4438 33.4777 20.3395 36.0307C22.2353 38.5837 25.0536 40.2948 28.1932 40.7991C31.3328 41.3034 34.5452 40.5609 37.1451 38.73C38.6712 37.5945 39.9107 36.1179 40.7646 34.418C41.6184 32.7182 42.0629 30.8422 42.0626 28.94C42.057 27.0306 41.6051 25.149 40.7431 23.4453C39.881 21.7416 38.6326 20.263 37.0976 19.1275C36.6355 18.7849 36.3279 18.2733 36.2422 17.7045C36.1564 17.1357 36.2995 16.5561 36.6401 16.0925C36.9827 15.6304 37.4943 15.3228 38.0631 15.2371C38.6319 15.1514 39.2115 15.2944 39.6751 15.635C41.7558 17.1743 43.4472 19.1794 44.6137 21.4899C45.7802 23.8003 46.3894 26.3518 46.3926 28.94C46.3893 33.3204 44.6477 37.5204 41.5503 40.6178C38.4529 43.7151 34.253 45.4567 29.8726 45.46" fill="#E6E6E8"/>
</g>
<defs>
<clipPath id="clip0_42_237">
<rect width="60" height="60" fill="white"/>
</clipPath>
</defs>
</svg>
