<svg width="60" height="60" viewBox="0 0 60 60" fill="none" xmlns="http://www.w3.org/2000/svg">
<path d="M56.1 22.5H30V5.34371C29.9994 4.95569 29.8783 4.57744 29.6536 4.26112C29.4288 3.9448 29.1115 3.70599 28.7453 3.57762C28.3792 3.44926 27.9822 3.43765 27.6091 3.54442C27.2361 3.65118 26.9054 3.87105 26.6625 4.17371L2.43754 34.455C2.21738 34.7307 2.07948 35.0629 2.03968 35.4135C1.99988 35.764 2.0598 36.1187 2.21255 36.4367C2.3653 36.7548 2.60469 37.0233 2.9032 37.2113C3.20171 37.3994 3.54722 37.4995 3.90004 37.5H30V54.6562C30.0007 55.0442 30.1218 55.4225 30.3465 55.7388C30.5712 56.0551 30.8886 56.2939 31.2547 56.4223C31.6209 56.5507 32.0179 56.5623 32.3909 56.4555C32.764 56.3487 33.0947 56.1289 33.3375 55.8262L57.5625 25.545C57.7827 25.2693 57.9206 24.937 57.9604 24.5865C58.0002 24.2359 57.9403 23.8812 57.7875 23.5632C57.6348 23.2451 57.3954 22.9767 57.0969 22.7886C56.7984 22.6005 56.4529 22.5005 56.1 22.5Z" fill="#66BB6A"/>
</svg>
